<?xml version="1.0" encoding="utf-8"?>
<!-- Generator: Adobe Illustrator 17.0.0, SVG Export Plug-In . SVG Version: 6.00 Build 0)  -->
<!DOCTYPE svg PUBLIC "-//W3C//DTD SVG 1.1//EN" "http://www.w3.org/Graphics/SVG/1.1/DTD/svg11.dtd">
<svg version="1.1" id="图层_1" xmlns="http://www.w3.org/2000/svg" xmlns:xlink="http://www.w3.org/1999/xlink" x="0px" y="0px"
	 width="128px" height="128px" viewBox="0 0 128 128" enable-background="new 0 0 128 128" xml:space="preserve">
<path fill="#4987DB" d="M64,118.307l-47.027-27.16V36.853L64,9.693l47.027,27.147v54.307L64,118.307L64,118.307z M24.84,86.613
	L64,109.227l39.173-22.613V41.387L64,18.773L24.84,41.387V86.613z"/>
<g enable-background="new    ">
	<g>
		<path fill="#4987DB" d="M78.722,77.02V51.867L63.526,74.272h-2.682L45.994,51.5V77.02c0,1.709,0.206,3.175,0.55,4.335
			c0.344,1.159,1.238,2.319,2.475,3.357v1.222H38.98v-1.222c1.237-1.038,2.131-2.198,2.475-3.357c0.344-1.16,0.55-2.626,0.55-4.335
			v-22.1c0-1.709-0.207-3.236-0.55-4.334c-0.344-1.221-1.238-2.32-2.475-3.419v-1.16h11.07l13.82,21.062l14.302-21.062h10.726v1.16
			c-1.031,0.61-1.994,1.648-2.682,2.87c-0.481,1.16-0.756,2.808-0.756,4.884v22.1c0,2.076,0.274,3.725,0.756,4.885
			c0.688,1.221,1.65,2.258,2.682,2.808v1.222H75.215v-1.222c1.101-0.55,1.994-1.587,2.682-2.808
			C78.446,80.744,78.722,79.096,78.722,77.02z"/>
	</g>
</g>
</svg>
