<?xml version="1.0" standalone="no"?><!DOCTYPE svg PUBLIC "-//W3C//DTD SVG 1.1//EN" "http://www.w3.org/Graphics/SVG/1.1/DTD/svg11.dtd"><svg t="1500561162068" class="icon" style="" viewBox="0 0 1024 1024" version="1.1" xmlns="http://www.w3.org/2000/svg" p-id="3851" xmlns:xlink="http://www.w3.org/1999/xlink" width="128" height="128"><defs><style type="text/css"></style></defs><path d="M512 946.456l-376.216-217.28V294.824L512 77.544l376.216 217.176v434.456L512 946.456zM198.72 692.904L512 873.816l313.384-180.904V331.096L512 150.184 198.72 331.096v361.808z" fill="#36A765" p-id="3852"></path><path d="M629.776 616.16V414.936L508.208 594.176h-21.456L367.952 412v204.16c0 13.672 1.648 25.4 4.4 34.68 2.752 9.272 9.904 18.552 19.8 26.856v9.776H311.84v-9.776c9.896-8.304 17.048-17.584 19.8-26.856 2.752-9.28 4.4-21.008 4.4-34.68v-176.8c0-13.672-1.656-25.888-4.4-34.672-2.752-9.768-9.904-18.56-19.8-27.352v-9.28h88.56l110.56 168.496 114.416-168.496h85.808v9.28c-8.248 4.88-15.952 13.184-21.456 22.96-3.848 9.28-6.048 22.464-6.048 39.072v176.8c0 16.608 2.192 29.8 6.048 39.08 5.504 9.768 13.2 18.064 21.456 22.464v9.776H601.72v-9.776c8.808-4.4 15.952-12.696 21.456-22.464 4.392-9.296 6.6-22.48 6.6-39.088z" fill="#36A765" p-id="3853"></path></svg>